# Exported by s4extract — catCondo_1x1_Med_lod01_g01
o catCondo_1x1_Med_lod01_g01
v 0.000000 0.000000 0.000000
v -0.500031 0.000000 0.000000
v -0.500031 0.000000 -0.500031
v 0.000000 0.000000 -0.500031
v 0.500031 0.000000 0.000000
v 0.000000 0.000000 0.000000
v 0.000000 0.000000 -0.500031
v 0.500031 0.000000 -0.500031
v 0.000000 0.000000 0.500031
v -0.500031 0.000000 0.500031
v -0.500031 0.000000 0.000000
v 0.000000 0.000000 0.000000
v 0.500031 0.000000 0.500031
v 0.000000 0.000000 0.500031
v 0.000000 0.000000 0.000000
v 0.500031 0.000000 0.000000
vt 0.662469 0.992722
vt 0.662469 0.746371
vt 0.416118 0.746371
vt 0.416118 0.992722
vt 0.662469 0.746371
vt 0.662469 0.992722
vt 0.416118 0.992722
vt 0.416118 0.746371
vt 0.416118 0.992722
vt 0.416118 0.746371
vt 0.662469 0.746371
vt 0.662469 0.992722
vt 0.416118 0.746371
vt 0.416118 0.992722
vt 0.662469 0.992722
vt 0.662469 0.746371
vn 0.000000 1.000000 0.000000
vn 0.000000 1.000000 0.000000
vn 0.000000 1.000000 0.000000
vn 0.000000 1.000000 0.000000
vn 0.000000 1.000000 0.000000
vn 0.000000 1.000000 0.000000
vn 0.000000 1.000000 0.000000
vn 0.000000 1.000000 0.000000
vn 0.000000 1.000000 0.000000
vn 0.000000 1.000000 0.000000
vn 0.000000 1.000000 0.000000
vn 0.000000 1.000000 0.000000
vn 0.000000 1.000000 0.000000
vn 0.000000 1.000000 0.000000
vn 0.000000 1.000000 0.000000
vn 0.000000 1.000000 0.000000
f 4/4/4 2/2/2 1/1/1
f 3/3/3 2/2/2 4/4/4
f 8/8/8 6/6/6 5/5/5
f 7/7/7 6/6/6 8/8/8
f 12/12/12 10/10/10 9/9/9
f 11/11/11 10/10/10 12/12/12
f 16/16/16 14/14/14 13/13/13
f 15/15/15 14/14/14 16/16/16
