# Exported by s4extract — landmark_EP04_ElevatedFreeway_Combined_01_lod02_g00
o landmark_EP04_ElevatedFreeway_Combined_01_lod02_g00
v 272.382022 177.617978 355.988764
v 272.382022 179.943820 355.988764
v 260.460674 177.617978 359.921348
v 260.460674 179.943820 359.921348
v 280.865169 179.943820 342.516854
v 273.415730 155.910112 354.337079
v 273.415730 175.370787 354.337079
v 280.865169 155.910112 342.516854
v 315.000000 155.910112 273.235955
v 330.269663 155.910112 264.000000
v 323.494382 155.910112 259.741573
v 321.775281 179.943820 277.494382
v 323.494382 179.943820 259.741573
v 267.224719 179.943820 364.179775
v 308.134831 179.943820 299.168539
v 301.370787 179.943820 294.898876
v 301.370787 155.910112 294.898876
v 266.651685 179.943820 350.078652
v 265.629213 177.617978 351.707865
v 315.000000 179.943820 273.235955
v 308.134831 155.910112 299.168539
v 266.651685 155.910112 350.078652
v 274.089888 179.943820 338.247191
v 265.629213 179.943820 351.707865
v 273.415730 179.943820 354.337079
v 267.224719 177.617978 364.179775
v 266.651685 175.370787 350.078652
v 294.505618 155.910112 320.831461
v 287.730337 179.943820 316.573034
v 287.730337 155.910112 316.573034
v 274.089888 155.910112 338.247191
v 294.505618 179.943820 320.831461
v 321.775281 155.910112 277.494382
v 330.269663 179.943820 264.000000
vt -1.628133 0.866881
vt -1.627329 0.964711
vt 1.981911 0.867042
vt 1.981750 0.964952
vt -1.005626 0.964791
vt -1.552169 -0.007475
vt -1.551284 0.769454
vt -1.005947 -0.007475
vt -2.014145 -0.007475
vt 2.632392 -0.007394
vt -2.633839 -0.007475
vt 2.007715 0.964871
vt -2.634000 0.964711
vt -2.009001 0.964711
vt 1.001607 0.964871
vt -1.005626 0.964791
vt -1.005947 -0.007475
vt 1.555464 0.964871
vt 1.625882 0.867042
vt -2.012297 0.964711
vt 1.001607 -0.007394
vt 1.555384 -0.007394
vt 1.001607 0.964871
vt 1.625882 0.964871
vt -1.550320 0.964711
vt -2.009162 0.866881
vt 1.555384 0.769614
vt -0.018408 -0.007475
vt -0.018408 0.964791
vt -0.018408 -0.007475
vt 1.001607 -0.007394
vt -0.018408 0.964791
vt 2.007715 -0.007394
vt 2.631990 0.964952
vn 0.846565 0.000000 0.532286
vn 0.846475 0.000000 0.532429
vn -0.846368 0.000000 -0.532598
vn -0.846368 0.000000 -0.532598
vn 0.846285 0.000000 0.532730
vn 0.846004 0.000000 0.533176
vn 0.846026 0.000000 0.533141
vn 0.846314 0.000000 0.532684
vn -0.846368 0.000000 -0.532598
vn 0.846292 0.000000 0.532720
vn -0.846292 0.000000 -0.532720
vn 0.846331 0.000000 0.532658
vn -0.846292 0.000000 -0.532720
vn 0.846233 0.000000 0.532813
vn 0.846392 0.000000 0.532561
vn -0.846392 0.000000 -0.532561
vn -0.846367 0.000000 -0.532600
vn -0.846667 0.000000 -0.532123
vn -0.846607 0.000000 -0.532219
vn -0.846368 0.000000 -0.532598
vn 0.846367 0.000000 0.532600
vn -0.846595 0.000000 -0.532237
vn -0.846405 0.000000 -0.532540
vn -0.846426 0.000000 -0.532506
vn 0.846295 0.000000 0.532714
vn 0.846233 0.000000 0.532813
vn -0.846601 0.000000 -0.532229
vn 0.846433 0.000000 0.532495
vn -0.846343 0.000000 -0.532639
vn -0.846343 0.000000 -0.532639
vn -0.846468 0.000000 -0.532439
vn 0.846450 0.000000 0.532468
vn 0.846314 0.000000 0.532684
vn 0.846292 0.000000 0.532720
f 24/24/24 3/3/3 4/4/4
f 19/19/19 3/3/3 24/24/24
f 18/18/18 19/19/19 24/24/24
f 27/27/27 19/19/19 18/18/18
f 23/23/23 27/27/27 18/18/18
f 23/23/23 31/31/31 27/27/27
f 27/27/27 31/31/31 22/22/22
f 23/23/23 30/30/30 31/31/31
f 29/29/29 30/30/30 23/23/23
f 29/29/29 17/17/17 30/30/30
f 16/16/16 17/17/17 29/29/29
f 16/16/16 9/9/9 17/17/17
f 20/20/20 9/9/9 16/16/16
f 13/13/13 9/9/9 20/20/20
f 11/11/11 9/9/9 13/13/13
f 26/26/26 1/1/1 14/14/14
f 14/14/14 1/1/1 2/2/2
f 1/1/1 25/25/25 2/2/2
f 7/7/7 25/25/25 1/1/1
f 7/7/7 5/5/5 25/25/25
f 7/7/7 8/8/8 5/5/5
f 5/5/5 8/8/8 32/32/32
f 32/32/32 8/8/8 28/28/28
f 32/32/32 28/28/28 15/15/15
f 15/15/15 28/28/28 21/21/21
f 15/15/15 21/21/21 12/12/12
f 6/6/6 8/8/8 7/7/7
f 12/12/12 21/21/21 33/33/33
f 12/12/12 33/33/33 34/34/34
f 34/34/34 33/33/33 10/10/10
